<svg width="342" height="336" viewBox="0 0 342 336" fill="none" xmlns="http://www.w3.org/2000/svg">
<path d="M4.61283 177.864C20.1755 170.303 51.4546 162.58 79.5 180.063C118 204.063 211 271.563 242.5 180.063C274 88.563 243 47.563 130 55.063C50.5295 60.3376 14.9549 122.672 3.77784 164.276C4.04492 168.765 4.32384 173.299 4.61283 177.864Z" fill="#2772F4"/>
<path d="M242.5 180.063C211 271.563 118 204.063 79.5 180.063C51.4546 162.58 20.1755 170.303 4.61283 177.864C8.31346 236.314 13.6668 299.706 17 335.563C130 323.563 286.5 323.563 298 196.563C309.5 69.563 400.5 -2.43699 278.5 0.0630119C156.5 2.56301 0.5 0.0629883 0.5 79.063C0.5 100.97 1.82168 131.4 3.77784 164.276C14.9549 122.672 50.5295 60.3376 130 55.063C243 47.563 274 88.563 242.5 180.063Z" fill="#2772F4"/>
<path d="M4.11283 175.233C19.6755 167.672 50.9546 159.949 79 177.432C117.5 201.432 210.5 268.932 242 177.432C273.5 85.9319 242.5 44.9319 129.5 52.4319C50.0295 57.7065 14.4549 120.04 3.27784 161.645C3.54492 166.134 3.82384 170.668 4.11283 175.233Z" fill="#0C2551"/>
</svg>
